<svg width="41" height="48" viewBox="0 0 41 48" fill="none" xmlns="http://www.w3.org/2000/svg">
<g clip-path="url(#clip0_4_33)">
<path d="M28.5459 0H31.7176V3.17176H28.5459V0ZM31.7176 0H34.8894V3.17176H31.7176V0ZM34.8894 0H38.0612V3.17176H34.8894V0ZM38.0612 0H41.2329V3.17176H38.0612V0ZM38.0612 3.17176H41.2329V6.34353H38.0612V3.17176ZM38.0612 6.34353H41.2329V9.51529H38.0612V6.34353ZM38.0612 9.51529H41.2329V12.6871H38.0612V9.51529ZM34.8894 9.51529H38.0612V12.6871H34.8894V9.51529ZM31.7176 9.51529H34.8894V12.6871H31.7176V9.51529ZM31.7176 6.34353H34.8894V9.51529H31.7176V6.34353ZM28.5459 6.34353H31.7176V9.51529H28.5459V6.34353ZM28.5459 3.17176H31.7176V6.34353H28.5459V3.17176ZM31.7176 3.17176H34.8894V6.34353H31.7176V3.17176ZM34.8894 3.17176H38.0612V6.34353H34.8894V3.17176ZM34.8894 6.34353H38.0612V9.51529H34.8894V6.34353ZM31.7176 12.6871H34.8894V15.8588H31.7176V12.6871ZM34.8894 12.6871H38.0612V15.8588H34.8894V12.6871ZM31.7176 15.8588H34.8894V19.0306H31.7176V15.8588ZM28.5459 15.8588H31.7176V19.0306H28.5459V15.8588ZM25.3741 19.0306H28.5459V22.2024H25.3741V19.0306ZM28.5459 19.0306H31.7176V22.2024H28.5459V19.0306ZM25.3741 15.8588H28.5459V19.0306H25.3741V15.8588ZM25.3741 12.6871H28.5459V15.8588H25.3741V12.6871ZM25.3741 9.51529H28.5459V12.6871H25.3741V9.51529ZM28.5459 9.51529H31.7176V12.6871H28.5459V9.51529ZM28.5459 12.6871H31.7176V15.8588H28.5459V12.6871ZM22.2023 15.8588H25.3741V19.0306H22.2023V15.8588ZM22.2023 19.0306H25.3741V22.2024H22.2023V19.0306ZM25.3741 22.2024H28.5459V25.3741H25.3741V22.2024ZM22.2023 22.2024H25.3741V25.3741H22.2023V22.2024ZM19.0306 22.2024H22.2023V25.3741H19.0306V22.2024ZM15.8588 22.2024H19.0306V25.3741H15.8588V22.2024ZM12.6871 22.2024H15.8588V25.3741H12.6871V22.2024ZM12.6871 19.0306H15.8588V22.2024H12.6871V19.0306ZM9.51529 19.0306H12.6871V22.2024H9.51529V19.0306ZM9.51529 15.8588H12.6871V19.0306H9.51529V15.8588ZM6.34352 15.8588H9.51529V19.0306H6.34352V15.8588ZM6.34352 12.6871H9.51529V15.8588H6.34352V12.6871ZM6.34352 9.51529H9.51529V12.6871H6.34352V9.51529ZM3.17177 9.51529H6.34352V12.6871H3.17177V9.51529ZM3.17177 12.6871H6.34352V15.8588H3.17177V12.6871ZM0 9.51529H3.17177V12.6871H0V9.51529ZM0 6.34353H3.17177V9.51529H0V6.34353ZM0 3.17176H3.17177V6.34353H0V3.17176ZM0 0H3.17177V3.17176H0V0ZM3.17177 0H6.34352V3.17176H3.17177V0ZM6.34352 0H9.51529V3.17176H6.34352V0ZM9.51529 0H12.6871V3.17176H9.51529V0ZM9.51529 3.17176H12.6871V6.34353H9.51529V3.17176ZM9.51529 6.34353H12.6871V9.51529H9.51529V6.34353ZM6.34352 6.34353H9.51529V9.51529H6.34352V6.34353ZM3.17177 6.34353H6.34352V9.51529H3.17177V6.34353ZM3.17177 3.17176H6.34352V6.34353H3.17177V3.17176ZM6.34352 3.17176H9.51529V6.34353H6.34352V3.17176ZM9.51529 9.51529H12.6871V12.6871H9.51529V9.51529ZM12.6871 9.51529H15.8588V12.6871H12.6871V9.51529ZM12.6871 12.6871H15.8588V15.8588H12.6871V12.6871ZM9.51529 12.6871H12.6871V15.8588H9.51529V12.6871ZM15.8588 12.6871H19.0306V15.8588H15.8588V12.6871ZM15.8588 15.8588H19.0306V19.0306H15.8588V15.8588ZM19.0306 15.8588H22.2023V19.0306H19.0306V15.8588ZM19.0306 19.0306H22.2023V22.2024H19.0306V19.0306ZM15.8588 19.0306H19.0306V22.2024H15.8588V19.0306ZM12.6871 15.8588H15.8588V19.0306H12.6871V15.8588ZM0 44.4047H3.17177V47.5765H0V44.4047ZM0 41.2329H3.17177V44.4047H0V41.2329ZM0 38.0612H3.17177V41.2329H0V38.0612ZM0 34.8894H3.17177V38.0612H0V34.8894ZM3.17177 34.8894H6.34352V38.0612H3.17177V34.8894ZM3.17177 31.7176H6.34352V34.8894H3.17177V31.7176ZM6.34352 31.7176H9.51529V34.8894H6.34352V31.7176ZM6.34352 28.5459H9.51529V31.7176H6.34352V28.5459ZM9.51529 28.5459H12.6871V31.7176H9.51529V28.5459ZM9.51529 25.3741H12.6871V28.5459H9.51529V25.3741ZM12.6871 25.3741H15.8588V28.5459H12.6871V25.3741ZM15.8588 25.3741H19.0306V28.5459H15.8588V25.3741ZM19.0306 25.3741H22.2023V28.5459H19.0306V25.3741ZM22.2023 25.3741H25.3741V28.5459H22.2023V25.3741ZM25.3741 25.3741H28.5459V28.5459H25.3741V25.3741ZM28.5459 25.3741H31.7176V28.5459H28.5459V25.3741ZM28.5459 28.5459H31.7176V31.7176H28.5459V28.5459ZM31.7176 28.5459H34.8894V31.7176H31.7176V28.5459ZM31.7176 31.7176H34.8894V34.8894H31.7176V31.7176ZM34.8894 31.7176H38.0612V34.8894H34.8894V31.7176ZM34.8894 34.8894H38.0612V38.0612H34.8894V34.8894ZM38.0612 34.8894H41.2329V38.0612H38.0612V34.8894ZM38.0612 38.0612H41.2329V41.2329H38.0612V38.0612ZM38.0612 41.2329H41.2329V44.4047H38.0612V41.2329ZM38.0612 44.4047H41.2329V47.5765H38.0612V44.4047ZM34.8894 44.4047H38.0612V47.5765H34.8894V44.4047ZM31.7176 44.4047H34.8894V47.5765H31.7176V44.4047ZM28.5459 44.4047H31.7176V47.5765H28.5459V44.4047ZM31.7176 41.2329H34.8894V44.4047H31.7176V41.2329ZM31.7176 38.0612H34.8894V41.2329H31.7176V38.0612ZM34.8894 38.0612H38.0612V41.2329H34.8894V38.0612ZM34.8894 41.2329H38.0612V44.4047H34.8894V41.2329ZM28.5459 38.0612H31.7176V41.2329H28.5459V38.0612ZM28.5459 34.8894H31.7176V38.0612H28.5459V34.8894ZM28.5459 41.2329H31.7176V44.4047H28.5459V41.2329ZM31.7176 34.8894H34.8894V38.0612H31.7176V34.8894ZM25.3741 34.8894H28.5459V38.0612H25.3741V34.8894ZM25.3741 31.7176H28.5459V34.8894H25.3741V31.7176ZM28.5459 31.7176H31.7176V34.8894H28.5459V31.7176ZM22.2023 31.7176H25.3741V34.8894H22.2023V31.7176ZM22.2023 28.5459H25.3741V31.7176H22.2023V28.5459ZM25.3741 28.5459H28.5459V31.7176H25.3741V28.5459ZM19.0306 28.5459H22.2023V31.7176H19.0306V28.5459ZM15.8588 28.5459H19.0306V31.7176H15.8588V28.5459ZM15.8588 31.7176H19.0306V34.8894H15.8588V31.7176ZM12.6871 31.7176H15.8588V34.8894H12.6871V31.7176ZM12.6871 28.5459H15.8588V31.7176H12.6871V28.5459ZM12.6871 34.8894H15.8588V38.0612H12.6871V34.8894ZM9.51529 34.8894H12.6871V38.0612H9.51529V34.8894ZM9.51529 31.7176H12.6871V34.8894H9.51529V31.7176ZM6.34352 34.8894H9.51529V38.0612H6.34352V34.8894ZM6.34352 38.0612H9.51529V41.2329H6.34352V38.0612ZM6.34352 41.2329H9.51529V44.4047H6.34352V41.2329ZM6.34352 44.4047H9.51529V47.5765H6.34352V44.4047ZM9.51529 44.4047H12.6871V47.5765H9.51529V44.4047ZM9.51529 41.2329H12.6871V44.4047H9.51529V41.2329ZM9.51529 38.0612H12.6871V41.2329H9.51529V38.0612ZM3.17177 41.2329H6.34352V44.4047H3.17177V41.2329ZM3.17177 38.0612H6.34352V41.2329H3.17177V38.0612ZM3.17177 44.4047H6.34352V47.5765H3.17177V44.4047ZM22.2023 12.6871H25.3741V15.8588H22.2023V12.6871Z" fill="white"/>
</g>
<defs>
<clipPath id="clip0_4_33">
<rect width="41" height="48" fill="white"/>
</clipPath>
</defs>
</svg>
