<svg width="261" height="79" viewBox="0 0 261 79" fill="none" xmlns="http://www.w3.org/2000/svg">
<g clip-path="url(#clip0_4_26)">
<path d="M248.465 31.7177H251.637V34.8894H248.465V31.7177ZM251.637 31.7177H254.809V34.8894H251.637V31.7177ZM254.809 31.7177H257.981V34.8894H254.809V31.7177ZM257.981 31.7177H261.152V34.8894H257.981V31.7177ZM257.981 34.8894H261.152V38.0612H257.981V34.8894ZM257.981 38.0612H261.152V41.2329H257.981V38.0612ZM257.981 41.2329H261.152V44.4047H257.981V41.2329ZM254.809 41.2329H257.981V44.4047H254.809V41.2329ZM251.637 41.2329H254.809V44.4047H251.637V41.2329ZM251.637 38.0612H254.809V41.2329H251.637V38.0612ZM248.465 38.0612H251.637V41.2329H248.465V38.0612ZM248.465 34.8894H251.637V38.0612H248.465V34.8894ZM251.637 34.8894H254.809V38.0612H251.637V34.8894ZM254.809 34.8894H257.981V38.0612H254.809V34.8894ZM254.809 38.0612H257.981V41.2329H254.809V38.0612ZM251.637 44.4047H254.809V47.5765H251.637V44.4047ZM254.809 44.4047H257.981V47.5765H254.809V44.4047ZM251.637 47.5765H254.809V50.7482H251.637V47.5765ZM248.465 47.5765H251.637V50.7482H248.465V47.5765ZM245.293 50.7482H248.465V53.92H245.293V50.7482ZM248.465 50.7482H251.637V53.92H248.465V50.7482ZM245.293 47.5765H248.465V50.7482H245.293V47.5765ZM245.293 44.4047H248.465V47.5765H245.293V44.4047ZM245.293 41.2329H248.465V44.4047H245.293V41.2329ZM248.465 41.2329H251.637V44.4047H248.465V41.2329ZM248.465 44.4047H251.637V47.5765H248.465V44.4047ZM242.122 47.5765H245.293V50.7482H242.122V47.5765ZM242.122 50.7482H245.293V53.92H242.122V50.7482ZM245.293 53.92H248.465V57.0918H245.293V53.92ZM242.122 53.92H245.293V57.0918H242.122V53.92ZM238.95 53.92H242.122V57.0918H238.95V53.92ZM235.778 53.92H238.95V57.0918H235.778V53.92ZM232.606 53.92H235.778V57.0918H232.606V53.92ZM232.606 50.7482H235.778V53.92H232.606V50.7482ZM229.435 50.7482H232.606V53.92H229.435V50.7482ZM229.435 47.5765H232.606V50.7482H229.435V47.5765ZM226.263 47.5765H229.435V50.7482H226.263V47.5765ZM226.263 44.4047H229.435V47.5765H226.263V44.4047ZM226.263 41.2329H229.435V44.4047H226.263V41.2329ZM223.091 41.2329H226.263V44.4047H223.091V41.2329ZM223.091 44.4047H226.263V47.5765H223.091V44.4047ZM219.919 41.2329H223.091V44.4047H219.919V41.2329ZM219.919 38.0612H223.091V41.2329H219.919V38.0612ZM219.919 34.8894H223.091V38.0612H219.919V34.8894ZM219.919 31.7177H223.091V34.8894H219.919V31.7177ZM223.091 31.7177H226.263V34.8894H223.091V31.7177ZM226.263 31.7177H229.435V34.8894H226.263V31.7177ZM229.435 31.7177H232.606V34.8894H229.435V31.7177ZM229.435 34.8894H232.606V38.0612H229.435V34.8894ZM229.435 38.0612H232.606V41.2329H229.435V38.0612ZM226.263 38.0612H229.435V41.2329H226.263V38.0612ZM223.091 38.0612H226.263V41.2329H223.091V38.0612ZM223.091 34.8894H226.263V38.0612H223.091V34.8894ZM226.263 34.8894H229.435V38.0612H226.263V34.8894ZM229.435 41.2329H232.606V44.4047H229.435V41.2329ZM232.606 41.2329H235.778V44.4047H232.606V41.2329ZM232.606 44.4047H235.778V47.5765H232.606V44.4047ZM229.435 44.4047H232.606V47.5765H229.435V44.4047ZM235.778 44.4047H238.95V47.5765H235.778V44.4047ZM235.778 47.5765H238.95V50.7482H235.778V47.5765ZM238.95 47.5765H242.122V50.7482H238.95V47.5765ZM238.95 50.7482H242.122V53.92H238.95V50.7482ZM235.778 50.7482H238.95V53.92H235.778V50.7482ZM232.606 47.5765H235.778V50.7482H232.606V47.5765ZM219.919 76.1224H223.091V79.2941H219.919V76.1224ZM219.919 72.9506H223.091V76.1224H219.919V72.9506ZM219.919 69.7788H223.091V72.9506H219.919V69.7788ZM219.919 66.6071H223.091V69.7788H219.919V66.6071ZM223.091 66.6071H226.263V69.7788H223.091V66.6071ZM223.091 63.4353H226.263V66.6071H223.091V63.4353ZM226.263 63.4353H229.435V66.6071H226.263V63.4353ZM226.263 60.2635H229.435V63.4353H226.263V60.2635ZM229.435 60.2635H232.606V63.4353H229.435V60.2635ZM229.435 57.0918H232.606V60.2635H229.435V57.0918ZM232.606 57.0918H235.778V60.2635H232.606V57.0918ZM235.778 57.0918H238.95V60.2635H235.778V57.0918ZM238.95 57.0918H242.122V60.2635H238.95V57.0918ZM242.122 57.0918H245.293V60.2635H242.122V57.0918ZM245.293 57.0918H248.465V60.2635H245.293V57.0918ZM248.465 57.0918H251.637V60.2635H248.465V57.0918ZM248.465 60.2635H251.637V63.4353H248.465V60.2635ZM251.637 60.2635H254.809V63.4353H251.637V60.2635ZM251.637 63.4353H254.809V66.6071H251.637V63.4353ZM254.809 63.4353H257.981V66.6071H254.809V63.4353ZM254.809 66.6071H257.981V69.7788H254.809V66.6071ZM257.981 66.6071H261.152V69.7788H257.981V66.6071ZM257.981 69.7788H261.152V72.9506H257.981V69.7788ZM257.981 72.9506H261.152V76.1224H257.981V72.9506ZM257.981 76.1224H261.152V79.2941H257.981V76.1224ZM254.809 76.1224H257.981V79.2941H254.809V76.1224ZM251.637 76.1224H254.809V79.2941H251.637V76.1224ZM248.465 76.1224H251.637V79.2941H248.465V76.1224ZM251.637 72.9506H254.809V76.1224H251.637V72.9506ZM251.637 69.7788H254.809V72.9506H251.637V69.7788ZM254.809 69.7788H257.981V72.9506H254.809V69.7788ZM254.809 72.9506H257.981V76.1224H254.809V72.9506ZM248.465 69.7788H251.637V72.9506H248.465V69.7788ZM248.465 66.6071H251.637V69.7788H248.465V66.6071ZM248.465 72.9506H251.637V76.1224H248.465V72.9506ZM251.637 66.6071H254.809V69.7788H251.637V66.6071ZM245.293 66.6071H248.465V69.7788H245.293V66.6071ZM245.293 63.4353H248.465V66.6071H245.293V63.4353ZM248.465 63.4353H251.637V66.6071H248.465V63.4353ZM242.122 63.4353H245.293V66.6071H242.122V63.4353ZM242.122 60.2635H245.293V63.4353H242.122V60.2635ZM245.293 60.2635H248.465V63.4353H245.293V60.2635ZM238.95 60.2635H242.122V63.4353H238.95V60.2635ZM235.778 60.2635H238.95V63.4353H235.778V60.2635ZM235.778 63.4353H238.95V66.6071H235.778V63.4353ZM232.606 63.4353H235.778V66.6071H232.606V63.4353ZM232.606 60.2635H235.778V63.4353H232.606V60.2635ZM232.606 66.6071H235.778V69.7788H232.606V66.6071ZM229.435 66.6071H232.606V69.7788H229.435V66.6071ZM229.435 63.4353H232.606V66.6071H229.435V63.4353ZM226.263 66.6071H229.435V69.7788H226.263V66.6071ZM226.263 69.7788H229.435V72.9506H226.263V69.7788ZM226.263 72.9506H229.435V76.1224H226.263V72.9506ZM226.263 76.1224H229.435V79.2941H226.263V76.1224ZM229.435 76.1224H232.606V79.2941H229.435V76.1224ZM229.435 72.9506H232.606V76.1224H229.435V72.9506ZM229.435 69.7788H232.606V72.9506H229.435V69.7788ZM223.091 72.9506H226.263V76.1224H223.091V72.9506ZM223.091 69.7788H226.263V72.9506H223.091V69.7788ZM223.091 76.1224H226.263V79.2941H223.091V76.1224ZM242.122 44.4047H245.293V47.5765H242.122V44.4047Z" fill="#AEAEAE"/>
<path d="M163.844 0H169.13V5.28628H163.844V0ZM169.13 0H174.416V5.28628H169.13V0ZM158.557 0H163.844V5.28628H158.557V0ZM174.416 0H179.702V5.28628H174.416V0ZM179.702 0H184.989V5.28628H179.702V0ZM184.989 0H190.275V5.28628H184.989V0ZM190.275 0H195.561V5.28628H190.275V0ZM195.561 5.28628H200.847V10.5725H195.561V5.28628ZM190.275 5.28628H195.561V10.5725H190.275V5.28628ZM190.275 10.5725H195.561V15.8588H190.275V10.5725ZM200.847 5.28628H206.134V10.5725H200.847V5.28628ZM200.847 10.5725H206.134V15.8588H200.847V10.5725ZM195.561 10.5725H200.847V15.8588H195.561V10.5725ZM190.275 15.8588H195.561V21.1451H190.275V15.8588ZM184.989 15.8588H190.275V21.1451H184.989V15.8588ZM195.561 15.8588H200.847V21.1451H195.561V15.8588ZM200.847 15.8588H206.134V21.1451H200.847V15.8588ZM206.134 15.8588H211.42V21.1451H206.134V15.8588ZM206.134 21.1451H211.42V26.4314H206.134V21.1451ZM206.134 52.8627H211.42V58.149H206.134V52.8627ZM206.134 58.149H211.42V63.4353H206.134V58.149ZM200.847 58.149H206.134V63.4353H200.847V58.149ZM200.847 63.4353H206.134V68.7216H200.847V63.4353ZM200.847 68.7216H206.134V74.0079H200.847V68.7216ZM195.561 68.7216H200.847V74.0079H195.561V68.7216ZM190.275 68.7216H195.561V74.0079H190.275V68.7216ZM184.989 63.4353H190.275V68.7216H184.989V63.4353ZM184.989 58.149H190.275V63.4353H184.989V58.149ZM190.275 58.149H195.561V63.4353H190.275V58.149ZM190.275 63.4353H195.561V68.7216H190.275V63.4353ZM195.561 63.4353H200.847V68.7216H195.561V63.4353ZM195.561 58.149H200.847V63.4353H195.561V58.149ZM195.561 52.8627H200.847V58.149H195.561V52.8627ZM190.275 52.8627H195.561V58.149H190.275V52.8627ZM190.275 21.1451H195.561V26.4314H190.275V21.1451ZM195.561 21.1451H200.847V26.4314H195.561V21.1451ZM200.847 52.8627H206.134V58.149H200.847V52.8627ZM200.847 21.1451H206.134V26.4314H200.847V21.1451ZM184.989 68.7216H190.275V74.0079H184.989V68.7216ZM184.989 74.0079H190.275V79.2941H184.989V74.0079ZM190.275 74.0079H195.561V79.2941H190.275V74.0079ZM179.702 74.0079H184.989V79.2941H179.702V74.0079ZM174.416 74.0079H179.702V79.2941H174.416V74.0079ZM169.13 74.0079H174.416V79.2941H169.13V74.0079ZM163.844 74.0079H169.13V79.2941H163.844V74.0079ZM158.557 74.0079H163.844V79.2941H158.557V74.0079ZM158.557 68.7216H163.844V74.0079H158.557V68.7216ZM153.271 68.7216H158.557V74.0079H153.271V68.7216ZM147.985 68.7216H153.271V74.0079H147.985V68.7216ZM147.985 63.4353H153.271V68.7216H147.985V63.4353ZM142.698 58.149H147.985V63.4353H142.698V58.149ZM147.985 58.149H153.271V63.4353H147.985V58.149ZM142.698 52.8627H147.985V58.149H142.698V52.8627ZM142.698 47.5765H147.985V52.8627H142.698V47.5765ZM142.698 42.2902H147.985V47.5765H142.698V42.2902ZM142.698 37.0039H147.985V42.2902H142.698V37.0039ZM142.698 31.7177H147.985V37.0039H142.698V31.7177ZM142.698 26.4314H147.985V31.7177H142.698V26.4314ZM147.985 26.4314H153.271V31.7177H147.985V26.4314ZM147.985 21.1451H153.271V26.4314H147.985V21.1451ZM142.698 21.1451H147.985V26.4314H142.698V21.1451ZM142.698 15.8588H147.985V21.1451H142.698V15.8588ZM147.985 15.8588H153.271V21.1451H147.985V15.8588ZM147.985 10.5725H153.271V15.8588H147.985V10.5725ZM147.985 5.28628H153.271V10.5725H147.985V5.28628ZM153.271 5.28628H158.557V10.5725H153.271V5.28628ZM158.557 5.28628H163.844V10.5725H158.557V5.28628ZM163.844 5.28628H169.13V10.5725H163.844V5.28628ZM163.844 10.5725H169.13V15.8588H163.844V10.5725ZM163.844 15.8588H169.13V21.1451H163.844V15.8588ZM158.557 15.8588H163.844V21.1451H158.557V15.8588ZM153.271 15.8588H158.557V21.1451H153.271V15.8588ZM158.557 21.1451H163.844V26.4314H158.557V21.1451ZM158.557 26.4314H163.844V31.7177H158.557V26.4314ZM158.557 31.7177H163.844V37.0039H158.557V31.7177ZM158.557 37.0039H163.844V42.2902H158.557V37.0039ZM158.557 42.2902H163.844V47.5765H158.557V42.2902ZM158.557 47.5765H163.844V52.8627H158.557V47.5765ZM158.557 52.8627H163.844V58.149H158.557V52.8627ZM158.557 58.149H163.844V63.4353H158.557V58.149ZM163.844 58.149H169.13V63.4353H163.844V58.149ZM163.844 63.4353H169.13V68.7216H163.844V63.4353ZM169.13 63.4353H174.416V68.7216H169.13V63.4353ZM174.416 63.4353H179.702V68.7216H174.416V63.4353ZM179.702 63.4353H184.989V68.7216H179.702V63.4353ZM179.702 68.7216H184.989V74.0079H179.702V68.7216ZM174.416 68.7216H179.702V74.0079H174.416V68.7216ZM169.13 68.7216H174.416V74.0079H169.13V68.7216ZM163.844 68.7216H169.13V74.0079H163.844V68.7216ZM158.557 63.4353H163.844V68.7216H158.557V63.4353ZM153.271 63.4353H158.557V68.7216H153.271V63.4353ZM153.271 58.149H158.557V63.4353H153.271V58.149ZM153.271 52.8627H158.557V58.149H153.271V52.8627ZM153.271 47.5765H158.557V52.8627H153.271V47.5765ZM147.985 47.5765H153.271V52.8627H147.985V47.5765ZM147.985 52.8627H153.271V58.149H147.985V52.8627ZM147.985 42.2902H153.271V47.5765H147.985V42.2902ZM147.985 37.0039H153.271V42.2902H147.985V37.0039ZM147.985 31.7177H153.271V37.0039H147.985V31.7177ZM153.271 31.7177H158.557V37.0039H153.271V31.7177ZM153.271 37.0039H158.557V42.2902H153.271V37.0039ZM153.271 42.2902H158.557V47.5765H153.271V42.2902ZM153.271 26.4314H158.557V31.7177H153.271V26.4314ZM153.271 21.1451H158.557V26.4314H153.271V21.1451ZM153.271 10.5725H158.557V15.8588H153.271V10.5725ZM158.557 10.5725H163.844V15.8588H158.557V10.5725ZM169.13 5.28628H174.416V10.5725H169.13V5.28628ZM174.416 5.28628H179.702V10.5725H174.416V5.28628ZM179.702 5.28628H184.989V10.5725H179.702V5.28628ZM184.989 5.28628H190.275V10.5725H184.989V5.28628ZM184.989 10.5725H190.275V15.8588H184.989V10.5725ZM179.702 10.5725H184.989V15.8588H179.702V10.5725ZM174.416 10.5725H179.702V15.8588H174.416V10.5725ZM169.13 10.5725H174.416V15.8588H169.13V10.5725Z" fill="#009485"/>
<path d="M84.5081 0H89.7944V5.28628H84.5081V0ZM89.7944 0H95.0807V5.28628H89.7944V0ZM79.2219 0H84.5081V5.28628H79.2219V0ZM95.0807 0H100.367V5.28628H95.0807V0ZM100.367 0H105.653V5.28628H100.367V0ZM105.653 0H110.939V5.28628H105.653V0ZM110.939 0H116.226V5.28628H110.939V0ZM116.226 5.28628H121.512V10.5725H116.226V5.28628ZM110.939 5.28628H116.226V10.5725H110.939V5.28628ZM110.939 10.5725H116.226V15.8588H110.939V10.5725ZM121.512 5.28628H126.798V10.5725H121.512V5.28628ZM121.512 10.5725H126.798V15.8588H121.512V10.5725ZM116.226 10.5725H121.512V15.8588H116.226V10.5725ZM110.939 15.8588H116.226V21.1451H110.939V15.8588ZM105.653 15.8588H110.939V21.1451H105.653V15.8588ZM116.226 15.8588H121.512V21.1451H116.226V15.8588ZM121.512 15.8588H126.798V21.1451H121.512V15.8588ZM126.798 15.8588H132.085V21.1451H126.798V15.8588ZM126.798 21.1451H132.085V26.4314H126.798V21.1451ZM126.798 52.8627H132.085V58.149H126.798V52.8627ZM126.798 58.149H132.085V63.4353H126.798V58.149ZM121.512 58.149H126.798V63.4353H121.512V58.149ZM121.512 63.4353H126.798V68.7216H121.512V63.4353ZM121.512 68.7216H126.798V74.0079H121.512V68.7216ZM116.226 68.7216H121.512V74.0079H116.226V68.7216ZM110.939 68.7216H116.226V74.0079H110.939V68.7216ZM105.653 63.4353H110.939V68.7216H105.653V63.4353ZM105.653 58.149H110.939V63.4353H105.653V58.149ZM110.939 58.149H116.226V63.4353H110.939V58.149ZM110.939 63.4353H116.226V68.7216H110.939V63.4353ZM116.226 63.4353H121.512V68.7216H116.226V63.4353ZM116.226 58.149H121.512V63.4353H116.226V58.149ZM116.226 52.8627H121.512V58.149H116.226V52.8627ZM110.939 52.8627H116.226V58.149H110.939V52.8627ZM110.939 21.1451H116.226V26.4314H110.939V21.1451ZM116.226 21.1451H121.512V26.4314H116.226V21.1451ZM121.512 52.8627H126.798V58.149H121.512V52.8627ZM121.512 21.1451H126.798V26.4314H121.512V21.1451ZM105.653 68.7216H110.939V74.0079H105.653V68.7216ZM105.653 74.0079H110.939V79.2941H105.653V74.0079ZM110.939 74.0079H116.226V79.2941H110.939V74.0079ZM100.367 74.0079H105.653V79.2941H100.367V74.0079ZM95.0807 74.0079H100.367V79.2941H95.0807V74.0079ZM89.7944 74.0079H95.0807V79.2941H89.7944V74.0079ZM84.5081 74.0079H89.7944V79.2941H84.5081V74.0079ZM79.2219 74.0079H84.5081V79.2941H79.2219V74.0079ZM79.2219 68.7216H84.5081V74.0079H79.2219V68.7216ZM73.9356 68.7216H79.2219V74.0079H73.9356V68.7216ZM68.6493 68.7216H73.9356V74.0079H68.6493V68.7216ZM68.6493 63.4353H73.9356V68.7216H68.6493V63.4353ZM63.363 58.149H68.6493V63.4353H63.363V58.149ZM68.6493 58.149H73.9356V63.4353H68.6493V58.149ZM63.363 52.8627H68.6493V58.149H63.363V52.8627ZM63.363 47.5765H68.6493V52.8627H63.363V47.5765ZM63.363 42.2902H68.6493V47.5765H63.363V42.2902ZM63.363 37.0039H68.6493V42.2902H63.363V37.0039ZM63.363 31.7177H68.6493V37.0039H63.363V31.7177ZM63.363 26.4314H68.6493V31.7177H63.363V26.4314ZM68.6493 26.4314H73.9356V31.7177H68.6493V26.4314ZM68.6493 21.1451H73.9356V26.4314H68.6493V21.1451ZM63.363 21.1451H68.6493V26.4314H63.363V21.1451ZM63.363 15.8588H68.6493V21.1451H63.363V15.8588ZM68.6493 15.8588H73.9356V21.1451H68.6493V15.8588ZM68.6493 10.5725H73.9356V15.8588H68.6493V10.5725ZM68.6493 5.28628H73.9356V10.5725H68.6493V5.28628ZM73.9356 5.28628H79.2219V10.5725H73.9356V5.28628ZM79.2219 5.28628H84.5081V10.5725H79.2219V5.28628ZM84.5081 5.28628H89.7944V10.5725H84.5081V5.28628ZM84.5081 10.5725H89.7944V15.8588H84.5081V10.5725ZM84.5081 15.8588H89.7944V21.1451H84.5081V15.8588ZM79.2219 15.8588H84.5081V21.1451H79.2219V15.8588ZM73.9356 15.8588H79.2219V21.1451H73.9356V15.8588ZM79.2219 21.1451H84.5081V26.4314H79.2219V21.1451ZM79.2219 26.4314H84.5081V31.7177H79.2219V26.4314ZM79.2219 31.7177H84.5081V37.0039H79.2219V31.7177ZM79.2219 37.0039H84.5081V42.2902H79.2219V37.0039ZM79.2219 42.2902H84.5081V47.5765H79.2219V42.2902ZM79.2219 47.5765H84.5081V52.8627H79.2219V47.5765ZM79.2219 52.8627H84.5081V58.149H79.2219V52.8627ZM79.2219 58.149H84.5081V63.4353H79.2219V58.149ZM84.5081 58.149H89.7944V63.4353H84.5081V58.149ZM84.5081 63.4353H89.7944V68.7216H84.5081V63.4353ZM89.7944 63.4353H95.0807V68.7216H89.7944V63.4353ZM95.0807 63.4353H100.367V68.7216H95.0807V63.4353ZM100.367 63.4353H105.653V68.7216H100.367V63.4353ZM100.367 68.7216H105.653V74.0079H100.367V68.7216ZM95.0807 68.7216H100.367V74.0079H95.0807V68.7216ZM89.7944 68.7216H95.0807V74.0079H89.7944V68.7216ZM84.5081 68.7216H89.7944V74.0079H84.5081V68.7216ZM79.2219 63.4353H84.5081V68.7216H79.2219V63.4353ZM73.9356 63.4353H79.2219V68.7216H73.9356V63.4353ZM73.9356 58.149H79.2219V63.4353H73.9356V58.149ZM73.9356 52.8627H79.2219V58.149H73.9356V52.8627ZM73.9356 47.5765H79.2219V52.8627H73.9356V47.5765ZM68.6493 47.5765H73.9356V52.8627H68.6493V47.5765ZM68.6493 52.8627H73.9356V58.149H68.6493V52.8627ZM68.6493 42.2902H73.9356V47.5765H68.6493V42.2902ZM68.6493 37.0039H73.9356V42.2902H68.6493V37.0039ZM68.6493 31.7177H73.9356V37.0039H68.6493V31.7177ZM73.9356 31.7177H79.2219V37.0039H73.9356V31.7177ZM73.9356 37.0039H79.2219V42.2902H73.9356V37.0039ZM73.9356 42.2902H79.2219V47.5765H73.9356V42.2902ZM73.9356 26.4314H79.2219V31.7177H73.9356V26.4314ZM73.9356 21.1451H79.2219V26.4314H73.9356V21.1451ZM73.9356 10.5725H79.2219V15.8588H73.9356V10.5725ZM79.2219 10.5725H84.5081V15.8588H79.2219V10.5725ZM89.7944 5.28628H95.0807V10.5725H89.7944V5.28628ZM95.0807 5.28628H100.367V10.5725H95.0807V5.28628ZM100.367 5.28628H105.653V10.5725H100.367V5.28628ZM105.653 5.28628H110.939V10.5725H105.653V5.28628ZM105.653 10.5725H110.939V15.8588H105.653V10.5725ZM100.367 10.5725H105.653V15.8588H100.367V10.5725ZM95.0807 10.5725H100.367V15.8588H95.0807V10.5725ZM89.7944 10.5725H95.0807V15.8588H89.7944V10.5725ZM126.798 26.4314H132.085V31.7177H126.798V26.4314ZM121.512 26.4314H126.798V31.7177H121.512V26.4314ZM116.226 26.4314H121.512V31.7177H116.226V26.4314ZM110.939 26.4314H116.226V31.7177H110.939V26.4314ZM126.798 31.7177H132.085V37.0039H126.798V31.7177ZM121.512 31.7177H126.798V37.0039H121.512V31.7177ZM116.226 31.7177H121.512V37.0039H116.226V31.7177ZM110.939 31.7177H116.226V37.0039H110.939V31.7177ZM105.653 31.7177H110.939V37.0039H105.653V31.7177ZM100.367 31.7177H105.653V37.0039H100.367V31.7177ZM95.0807 31.7177H100.367V37.0039H95.0807V31.7177ZM89.7944 31.7177H95.0807V37.0039H89.7944V31.7177ZM84.5081 31.7177H89.7944V37.0039H84.5081V31.7177ZM84.5081 37.0039H89.7944V42.2902H84.5081V37.0039ZM89.7944 37.0039H95.0807V42.2902H89.7944V37.0039ZM95.0807 37.0039H100.367V42.2902H95.0807V37.0039ZM100.367 37.0039H105.653V42.2902H100.367V37.0039ZM105.653 37.0039H110.939V42.2902H105.653V37.0039ZM110.939 37.0039H116.226V42.2902H110.939V37.0039ZM116.226 37.0039H121.512V42.2902H116.226V37.0039ZM121.512 37.0039H126.798V42.2902H121.512V37.0039ZM126.798 37.0039H132.085V42.2902H126.798V37.0039Z" fill="#009485"/>
<path d="M0 0H5.28627V5.28628H0V0ZM5.28627 0H10.5725V5.28628H5.28627V0ZM10.5725 0H15.8588V5.28628H10.5725V0ZM0 10.5725H5.28627V15.8588H0V10.5725ZM0 5.28628H5.28627V10.5725H0V5.28628ZM10.5725 74.0079H15.8588V79.2941H10.5725V74.0079ZM5.28627 74.0079H10.5725V79.2941H5.28627V74.0079ZM0 68.7216H5.28627V74.0079H0V68.7216ZM0 63.4353H5.28627V68.7216H0V63.4353ZM0 74.0079H5.28627V79.2941H0V74.0079ZM26.4314 0H31.7176V5.28628H26.4314V0ZM15.8588 0H21.1451V5.28628H15.8588V0ZM31.7176 0H37.0039V5.28628H31.7176V0ZM37.0039 0H42.2902V5.28628H37.0039V0ZM42.2902 0H47.5765V5.28628H42.2902V0ZM47.5765 5.28628H52.8627V10.5725H47.5765V5.28628ZM47.5765 10.5725H52.8627V15.8588H47.5765V10.5725ZM52.8627 10.5725H58.149V15.8588H52.8627V10.5725ZM47.5765 15.8588H52.8627V21.1451H47.5765V15.8588ZM42.2902 15.8588H47.5765V21.1451H42.2902V15.8588ZM15.8588 74.0079H21.1451V79.2941H15.8588V74.0079ZM15.8588 68.7216H21.1451V74.0079H15.8588V68.7216ZM10.5725 68.7216H15.8588V74.0079H10.5725V68.7216ZM5.28627 68.7216H10.5725V74.0079H5.28627V68.7216ZM5.28627 26.4314H10.5725V31.7177H5.28627V26.4314ZM5.28627 21.1451H10.5725V26.4314H5.28627V21.1451ZM0 15.8588H5.28627V21.1451H0V15.8588ZM5.28627 10.5725H10.5725V15.8588H5.28627V10.5725ZM10.5725 5.28628H15.8588V10.5725H10.5725V5.28628ZM15.8588 5.28628H21.1451V10.5725H15.8588V5.28628ZM21.1451 5.28628H26.4314V10.5725H21.1451V5.28628ZM21.1451 10.5725H26.4314V15.8588H21.1451V10.5725ZM21.1451 15.8588H26.4314V21.1451H21.1451V15.8588ZM15.8588 15.8588H21.1451V21.1451H15.8588V15.8588ZM10.5725 15.8588H15.8588V21.1451H10.5725V15.8588ZM15.8588 21.1451H21.1451V26.4314H15.8588V21.1451ZM15.8588 26.4314H21.1451V31.7177H15.8588V26.4314ZM15.8588 31.7177H21.1451V37.0039H15.8588V31.7177ZM15.8588 63.4353H21.1451V68.7216H15.8588V63.4353ZM10.5725 63.4353H15.8588V68.7216H10.5725V63.4353ZM10.5725 26.4314H15.8588V31.7177H10.5725V26.4314ZM10.5725 21.1451H15.8588V26.4314H10.5725V21.1451ZM10.5725 10.5725H15.8588V15.8588H10.5725V10.5725ZM15.8588 10.5725H21.1451V15.8588H15.8588V10.5725ZM26.4314 5.28628H31.7176V10.5725H26.4314V5.28628ZM31.7176 5.28628H37.0039V10.5725H31.7176V5.28628ZM37.0039 5.28628H42.2902V10.5725H37.0039V5.28628ZM42.2902 5.28628H47.5765V10.5725H42.2902V5.28628ZM42.2902 10.5725H47.5765V15.8588H42.2902V10.5725ZM37.0039 10.5725H42.2902V15.8588H37.0039V10.5725ZM31.7176 10.5725H37.0039V15.8588H31.7176V10.5725ZM26.4314 10.5725H31.7176V15.8588H26.4314V10.5725ZM5.28627 5.28628H10.5725V10.5725H5.28627V5.28628ZM5.28627 63.4353H10.5725V68.7216H5.28627V63.4353ZM5.28627 15.8588H10.5725V21.1451H5.28627V15.8588ZM0 21.1451H5.28627V26.4314H0V21.1451ZM0 26.4314H5.28627V31.7177H0V26.4314ZM0 58.149H5.28627V63.4353H0V58.149ZM5.28627 58.149H10.5725V63.4353H5.28627V58.149ZM10.5725 58.149H15.8588V63.4353H10.5725V58.149ZM15.8588 58.149H21.1451V63.4353H15.8588V58.149ZM10.5725 31.7177H15.8588V37.0039H10.5725V31.7177ZM5.28627 31.7177H10.5725V37.0039H5.28627V31.7177ZM0 31.7177H5.28627V37.0039H0V31.7177ZM0 37.0039H5.28627V42.2902H0V37.0039ZM0 42.2902H5.28627V47.5765H0V42.2902ZM0 47.5765H5.28627V52.8627H0V47.5765ZM5.28627 47.5765H10.5725V52.8627H5.28627V47.5765ZM5.28627 52.8627H10.5725V58.149H5.28627V52.8627ZM10.5725 52.8627H15.8588V58.149H10.5725V52.8627ZM0 52.8627H5.28627V58.149H0V52.8627ZM15.8588 52.8627H21.1451V58.149H15.8588V52.8627ZM15.8588 47.5765H21.1451V52.8627H15.8588V47.5765ZM15.8588 42.2902H21.1451V47.5765H15.8588V42.2902ZM15.8588 37.0039H21.1451V42.2902H15.8588V37.0039ZM10.5725 37.0039H15.8588V42.2902H10.5725V37.0039ZM5.28627 37.0039H10.5725V42.2902H5.28627V37.0039ZM5.28627 42.2902H10.5725V47.5765H5.28627V42.2902ZM10.5725 47.5765H15.8588V52.8627H10.5725V47.5765ZM10.5725 42.2902H15.8588V47.5765H10.5725V42.2902ZM37.0039 15.8588H42.2902V21.1451H37.0039V15.8588ZM42.2902 21.1451H47.5765V26.4314H42.2902V21.1451Z" fill="#009485"/>
</g>
<defs>
<clipPath id="clip0_4_26">
<rect width="261" height="79" fill="white"/>
</clipPath>
</defs>
</svg>
